<svg width="380" height="431" viewBox="0 0 380 431" fill="none" xmlns="http://www.w3.org/2000/svg">
<path fill-rule="evenodd" clip-rule="evenodd" d="M292 282.903V5.10032C292 -0.00102505 285.235 -1.81472 282.673 2.59978L124.404 275.321C51.7927 286.545 0 315.865 0 350.269C0 394.36 85.0659 430.102 190 430.102C294.934 430.102 380 394.36 380 350.269C380 321.95 344.909 297.076 292 282.903ZM247.918 234.013V169.236C247.918 164.101 241.083 162.314 238.56 166.79L202.048 231.566C200.173 234.892 202.582 239.002 206.406 239.002H242.918C245.679 239.002 247.918 236.768 247.918 234.013ZM137.3 360.748H242.918C245.679 360.748 247.918 358.514 247.918 355.758V301.871C247.918 299.115 245.679 296.881 242.918 296.881H167.522C165.711 296.881 164.043 297.858 163.158 299.434L132.937 353.322C131.072 356.648 133.481 360.748 137.3 360.748ZM81.7145 326.819C53.6802 360.748 98.7353 383.7 190.848 382.702C277.955 380.706 324.526 355.758 303.5 323.824C298.494 315.841 304.988 310.852 309.994 317.838C335.025 351.767 303.987 378.71 228.895 389.688C211.874 391.683 151.8 391.683 135.781 388.69C78.7108 379.708 53.6802 359.75 66.6961 332.806C69.6079 327.002 73.2109 322.231 76.5 319.138C76.5 319.138 81.3308 313.542 85 316.34C88.6692 319.138 81.7145 326.819 81.7145 326.819Z" fill="black"/>
</svg>
