<?xml version="1.0" standalone="no"?>
<!DOCTYPE svg PUBLIC "-//W3C//DTD SVG 20010904//EN"
 "http://www.w3.org/TR/2001/REC-SVG-20010904/DTD/svg10.dtd">
<svg version="1.0" xmlns="http://www.w3.org/2000/svg"
 width="431.000000pt" height="431.000000pt" viewBox="0 0 431.000000 431.000000"
 preserveAspectRatio="xMidYMid meet">
<metadata>
Created by potrace 1.14, written by Peter Selinger 2001-2017
</metadata>
<g transform="translate(0.000000,431.000000) scale(0.100000,-0.100000)"
fill="#000000" stroke="none">
<path d="M3094 4302 c-13 -8 -294 -490 -294 -503 0 -5 -4 -9 -10 -9 -5 0 -10
-4 -10 -9 0 -7 -105 -193 -170 -301 -15 -24 -124 -213 -275 -475 -76 -132
-146 -252 -156 -267 -11 -15 -19 -30 -19 -33 0 -3 -11 -24 -26 -46 -14 -22
-33 -55 -43 -72 -10 -18 -60 -104 -111 -192 -51 -88 -100 -173 -110 -190 -25
-44 -164 -284 -188 -325 -38 -64 -102 -174 -135 -233 -42 -73 -62 -97 -84 -98
-49 -2 -249 -45 -373 -80 -544 -155 -866 -421 -836 -694 10 -99 50 -176 135
-264 111 -115 262 -207 471 -289 94 -36 289 -98 344 -108 12 -2 50 -10 86 -19
125 -29 335 -59 505 -73 189 -15 744 -6 846 13 12 2 47 7 78 10 31 4 63 8 71
10 8 2 35 7 60 10 60 8 260 52 324 70 28 8 53 15 56 15 3 0 43 13 90 29 275
93 460 197 587 327 103 107 144 200 139 317 -9 241 -266 458 -718 608 l-158
53 0 1397 c0 1267 -1 1398 -16 1410 -19 16 -45 21 -60 11z m-376 -1654 c9 -8
12 -91 12 -351 0 -303 -2 -342 -17 -359 -15 -16 -35 -18 -218 -18 -165 0 -205
3 -215 15 -19 23 -19 48 1 77 11 14 19 28 19 31 0 2 42 78 93 168 51 91 96
171 100 179 4 8 13 24 20 35 7 11 32 56 56 100 66 120 88 147 114 139 12 -3
28 -11 35 -16z m-4 -1324 c14 -13 16 -55 16 -304 0 -279 -1 -289 -20 -303 -17
-12 -111 -14 -561 -15 -523 0 -542 1 -561 20 -23 23 -20 35 32 126 20 37 84
150 140 252 57 102 112 197 122 213 l19 27 399 0 c349 0 401 -2 414 -16z m657
-227 c136 -210 46 -401 -250 -531 -95 -42 -245 -89 -356 -111 -44 -9 -87 -18
-95 -20 -127 -26 -201 -30 -535 -30 -398 0 -473 5 -637 39 -277 59 -437 126
-537 227 -79 80 -97 196 -47 302 57 119 150 206 185 172 19 -19 8 -51 -39
-114 -54 -71 -71 -114 -72 -176 -1 -62 19 -103 75 -156 90 -84 289 -154 532
-185 28 -3 59 -8 70 -10 122 -24 719 -23 842 0 10 2 46 7 78 11 33 4 69 9 80
11 21 4 80 15 105 19 8 2 44 11 80 20 396 102 555 269 451 474 -35 69 -39 105
-14 119 26 15 42 3 84 -61z"/>
</g>
</svg>
